<svg id="drive_eta_black_24dp" xmlns="http://www.w3.org/2000/svg" width="41.123" height="41.123" viewBox="0 0 41.123 41.123">
  <path id="Path_71688" data-name="Path 71688" d="M0,0H41.123V41.123H0Z" fill="none"/>
  <path id="Path_71689" data-name="Path 71689" d="M30.278,5.731A2.56,2.56,0,0,0,27.845,4H9A2.577,2.577,0,0,0,6.564,5.731L3,15.994V29.7a1.718,1.718,0,0,0,1.713,1.713H6.427A1.718,1.718,0,0,0,8.14,29.7V27.988H28.7V29.7a1.718,1.718,0,0,0,1.713,1.713h1.713A1.718,1.718,0,0,0,33.842,29.7V15.994ZM9,22.848a2.57,2.57,0,1,1,2.57-2.57A2.567,2.567,0,0,1,9,22.848Zm18.848,0a2.57,2.57,0,1,1,2.57-2.57A2.567,2.567,0,0,1,27.845,22.848ZM6.427,14.281,9,6.57H27.845l2.57,7.71Z" transform="translate(2.14 2.854)" fill="#5ca2b0"/>
</svg>
