<svg id="yard_black_24dp" xmlns="http://www.w3.org/2000/svg" width="42.683" height="42.683" viewBox="0 0 42.683 42.683">
  <g id="Group_49504" data-name="Group 49504">
    <path id="Path_71692" data-name="Path 71692" d="M0,0H42.683V42.683H0Z" fill="none"/>
  </g>
  <g id="Group_49506" data-name="Group 49506" transform="translate(3.557 3.557)">
    <g id="Group_49505" data-name="Group 49505">
      <path id="Path_71693" data-name="Path 71693" d="M34.012,2H5.557A3.567,3.567,0,0,0,2,5.557V34.012a3.567,3.567,0,0,0,3.557,3.557H34.012a3.567,3.567,0,0,0,3.557-3.557V5.557A3.567,3.567,0,0,0,34.012,2ZM12.671,13.062a2.778,2.778,0,0,1,2.774-2.774,2.7,2.7,0,0,1,1.583.5l-.018-.213a2.774,2.774,0,1,1,5.549,0l-.018.213a2.742,2.742,0,0,1,1.583-.5,2.765,2.765,0,0,1,1.192,5.264,2.776,2.776,0,0,1-1.192,5.282,2.833,2.833,0,0,1-1.583-.5l.018.213a2.774,2.774,0,0,1-5.549,0l.018-.213a2.742,2.742,0,0,1-1.583.5,2.765,2.765,0,0,1-1.192-5.264A2.8,2.8,0,0,1,12.671,13.062Zm7.114,19.172A10.679,10.679,0,0,1,9.114,21.563,10.679,10.679,0,0,1,19.785,32.234,10.679,10.679,0,0,1,30.455,21.563,10.679,10.679,0,0,1,19.785,32.234Z" transform="translate(-2 -2)" fill="#5ca2b0"/>
      <circle id="Ellipse_174" data-name="Ellipse 174" cx="2.774" cy="2.774" r="2.774" transform="translate(15.01 10.777)" fill="#5ca2b0"/>
    </g>
  </g>
</svg>
