<svg xmlns="http://www.w3.org/2000/svg" width="286.146" height="30.088" viewBox="0 0 286.146 30.088">
  <g id="Group_49572" data-name="Group 49572" transform="translate(-157 -5844.677)">
    <g id="Group_49330" data-name="Group 49330" transform="translate(78.794 5821.363)">
      <g id="Group_13125" data-name="Group 13125" transform="translate(112.134 23.314)">
        <g id="Group_13128" data-name="Group 13128" transform="translate(0)">
          <path id="Path_6935" data-name="Path 6935" d="M126.95,0h2.216V15.266h.181a37.919,37.919,0,0,1,2.759-3.009L144.27,0h2.8L134.231,12.7l14.2,17.124h-2.758L132.693,14.071l-3.527,3.451v12.3H126.95Z" transform="translate(-99.251)" fill="#282d2e"/>
          <path id="Path_6936" data-name="Path 6936" d="M396.088,29.823V17.08L385.416,0h2.532L393.6,9.292c1.447,2.389,2.577,4.159,3.708,6.239h.091c.995-1.9,2.306-3.894,3.8-6.239L407.122,0h2.533L398.3,17.168V29.823Z" transform="translate(-301.323)" fill="#282d2e"/>
          <path id="Path_6937" data-name="Path 6937" d="M264.433,0h-2.17l-12.3,29.823h2.306l4.206-10.487h.011l1.351-3.266L261.584,6.9a48.477,48.477,0,0,0,1.673-4.6h.091c.452,1.46.859,2.743,1.673,4.734l4.3,10.487h0l1.682,4.142,3.342,8.159h2.306Z" transform="translate(-195.423)" fill="#282d2e"/>
          <path id="Path_6938" data-name="Path 6938" d="M532.182,29.823h2.306L522.278,0h-2.17l-12.3,29.823h2.306l3.892-9.706h0l.313-.781h.011l1.066-2.568L519.429,6.9A48.493,48.493,0,0,0,521.1,2.3h.09c.452,1.46.859,2.744,1.673,4.734l4.3,10.487h0l1.047,2.595Z" transform="translate(-397.009)" fill="#282d2e"/>
          <path id="Path_6939" data-name="Path 6939" d="M0,0V1.82H2.216V1.814l15.1,0V0Z" fill="#282d2e"/>
          <path id="Path_6940" data-name="Path 6940" d="M2.216,40.875V35.436H0V57.528H17.32V55.714H2.216V42.7h15.1V40.891H2.216Z" transform="translate(0 -27.704)" fill="#282d2e"/>
        </g>
      </g>
      <g id="Group_13127" data-name="Group 13127" transform="translate(78.206 23.314)">
        <g id="Group_13129" data-name="Group 13129">
          <path id="Path_6941" data-name="Path 6941" d="M26.651,18.149V15.131L20.621,20.8a2.57,2.57,0,0,0-.809,1.872v3.017l6.03-5.671a2.57,2.57,0,0,0,.809-1.872" transform="translate(-15.489 -11.83)" fill="#282d2e"/>
          <path id="Path_6942" data-name="Path 6942" d="M26.651,47.072V44.055l-6.03,5.671a2.57,2.57,0,0,0-.809,1.872v3.017l6.03-5.671a2.57,2.57,0,0,0,.809-1.872" transform="translate(-15.489 -34.443)" fill="#282d2e"/>
          <path id="Path_6943" data-name="Path 6943" d="M65.044,25.764V22.747a2.57,2.57,0,0,0-.809-1.872L58.205,15.2v3.018a2.57,2.57,0,0,0,.809,1.872Z" transform="translate(-45.505 -11.887)" fill="#282d2e"/>
          <path id="Path_6944" data-name="Path 6944" d="M65.044,54.687V51.67a2.57,2.57,0,0,0-.809-1.872l-6.03-5.671v3.017a2.57,2.57,0,0,0,.809,1.872Z" transform="translate(-45.505 -34.499)" fill="#282d2e"/>
          <path id="Path_6945" data-name="Path 6945" d="M0,0V29.823H5.844V28.229h0V24.914l4.512-4.244a2.57,2.57,0,0,0,.809-1.872V15.781l-6.03,5.671a2.571,2.571,0,0,0-.809,1.872v4.905H1.555V1.595H22.327V28.229H19.539V23.339a2.57,2.57,0,0,0-.809-1.872L12.7,15.8v3.017a2.57,2.57,0,0,0,.809,1.872l4.512,4.244v4.894h5.861V0Z" fill="#282d2e"/>
        </g>
      </g>
    </g>
    <g id="Group_49403" data-name="Group 49403" transform="translate(-449 5782.391)">
      <path id="Path_71593" data-name="Path 71593" d="M10.03.34c4.9,0,7.684-2.822,7.684-6.528,0-4.012-3.706-5.3-7.48-5.984-3.468-.646-6.664-1.6-6.664-4.59,0-2.72,2.108-4.692,5.508-4.692,3.23,0,5.712,1.292,6.562,5.882h1.836c-.986-5.338-3.842-7.378-8.364-7.378-4.42,0-7.276,2.822-7.276,6.256,0,4.012,3.774,5.3,7.582,6.018,3.5.68,6.528,1.632,6.528,4.556,0,2.958-2.142,4.964-5.916,4.964-3.944,0-6.426-1.53-7.31-5.882H.884C1.938-1.972,4.692.34,10.03.34ZM21.216,0h1.768V-9.214H27.71c6.222,0,9.044-1.938,9.044-6.766,0-4.556-2.856-6.6-8.874-6.6H21.216Zm1.768-10.71V-21.08h4.9c5.032,0,7.072,1.394,7.072,5.1,0,3.842-2.176,5.27-7.208,5.27ZM35.394,0h1.8l2.788-7.82h9.452L52.258,0h1.87L45.9-22.644H43.69Zm5.134-9.35L44.71-20.978,48.926-9.35ZM65.076.374c4.59,0,8.772-2.312,9.656-8.942L72.9-8.636c-.748,5.95-4.284,7.446-7.752,7.446-4.76,0-8.5-3.638-8.5-10.03v-.17c0-6.324,3.74-10.03,8.5-10.03,3.638,0,6.97,1.53,7.752,7.412l1.836-.068c-.918-6.6-5-8.874-9.622-8.874-5.746,0-10.336,4.42-10.336,11.73C54.774-4.08,59.364.374,65.076.374ZM77.962,0h15.4V-1.53H79.7v-9.758H88.06v-1.5H79.7v-8.262h12.75v-1.53H77.962Zm25.5.34c4.9,0,7.684-2.822,7.684-6.528,0-4.012-3.706-5.3-7.48-5.984C100.2-12.818,97-13.77,97-16.762c0-2.72,2.108-4.692,5.508-4.692,3.23,0,5.712,1.292,6.562,5.882h1.836c-.986-5.338-3.842-7.378-8.364-7.378-4.42,0-7.276,2.822-7.276,6.256,0,4.012,3.774,5.3,7.582,6.018,3.5.68,6.528,1.632,6.528,4.556,0,2.958-2.142,4.964-5.916,4.964-3.944,0-6.426-1.53-7.31-5.882H94.316C95.37-1.972,98.124.34,103.462.34Z" transform="translate(781 92)" fill="#5ca2b0"/>
    </g>
  </g>
</svg>
