<svg id="hot_tub_black_24dp" xmlns="http://www.w3.org/2000/svg" width="54" height="54" viewBox="0 0 54 54">
  <path id="Path_71674" data-name="Path 71674" d="M0,0H54V54H0Z" fill="none"/>
  <ellipse id="Ellipse_173" data-name="Ellipse 173" cx="4.5" cy="4" rx="4.5" ry="4" transform="translate(11 10)" fill="#5ca2b0"/>
  <path id="Path_71675" data-name="Path 71675" d="M22.588,23.25a10.81,10.81,0,0,1-1.845-1.62l-3.15-3.488a4.827,4.827,0,0,0-1.553-1.125,5.007,5.007,0,0,0-2.16-.518h-.068A5.07,5.07,0,0,0,8.75,21.563V23.25H2v18a4.513,4.513,0,0,0,4.5,4.5h36a4.513,4.513,0,0,0,4.5-4.5v-18Zm-9.338,18H8.75V27.75h4.5Zm9,0h-4.5V27.75h4.5Zm9,0h-4.5V27.75h4.5Zm9,0h-4.5V27.75h4.5ZM39.463,9.435l-.158-.158A5.683,5.683,0,0,1,37.8,4.328L38,3H33.748l-.135.968a9.66,9.66,0,0,0,2.925,8.37l.158.135a5.683,5.683,0,0,1,1.508,4.95l-.248,1.328h4.3l.135-.968A9.532,9.532,0,0,0,39.463,9.435Zm-9,0-.158-.158A5.683,5.683,0,0,1,28.8,4.328L29,3H24.748l-.135.968a9.66,9.66,0,0,0,2.925,8.37l.157.135a5.683,5.683,0,0,1,1.508,4.95l-.247,1.328h4.3l.135-.968A9.532,9.532,0,0,0,30.463,9.435Z" transform="translate(2.5 3.75)" fill="#5ca2b0"/>
</svg>
