<svg xmlns="http://www.w3.org/2000/svg" width="53" height="53" viewBox="0 0 53 53">
  <g id="electrical_services_black_24dp" transform="translate(0 -0.69)">
    <g id="Group_49488" data-name="Group 49488" transform="translate(0 0.294)">
      <rect id="Rectangle_13413" data-name="Rectangle 13413" width="53" height="53" transform="translate(0 0.397)" fill="none"/>
    </g>
    <g id="Group_49490" data-name="Group 49490" transform="translate(6.7 9.023)">
      <g id="Group_49489" data-name="Group 49489">
        <path id="Path_71670" data-name="Path 71670" d="M24.7,15.233A2.24,2.24,0,0,0,22.467,13H18v4.467h4.467A2.24,2.24,0,0,0,24.7,15.233Z" transform="translate(15.5 7.1)" fill="#5ca2b0"/>
        <path id="Path_71671" data-name="Path 71671" d="M22.467,17H18v4.467h4.467a2.233,2.233,0,1,0,0-4.467Z" transform="translate(15.5 12.034)" fill="#5ca2b0"/>
        <path id="Path_71672" data-name="Path 71672" d="M14.467,16.467H10V25.4h4.467a4.48,4.48,0,0,0,4.467,4.467h6.7V12h-6.7A4.48,4.48,0,0,0,14.467,16.467Z" transform="translate(5.634 5.867)" fill="#5ca2b0"/>
        <path id="Path_71673" data-name="Path 71673" d="M7.467,24.1a4.48,4.48,0,0,1,4.467-4.467h3.35A7.817,7.817,0,1,0,15.283,4H7.467a2.233,2.233,0,0,0,0,4.467h7.817a3.35,3.35,0,0,1,0,6.7h-3.35a8.933,8.933,0,1,0,0,17.867H16.4V28.567H11.933A4.48,4.48,0,0,1,7.467,24.1Z" transform="translate(-3 -4)" fill="#5ca2b0"/>
      </g>
    </g>
  </g>
</svg>
