<svg id="settings_black_24dp" xmlns="http://www.w3.org/2000/svg" width="41.788" height="41.788" viewBox="0 0 41.788 41.788">
  <path id="Path_71685" data-name="Path 71685" d="M0,0H41.788V41.788H0Z" fill="none"/>
  <path id="Path_71686" data-name="Path 71686" d="M31.353,20.752a12.317,12.317,0,0,0,.1-1.637,10.059,10.059,0,0,0-.122-1.637l3.535-2.751a.854.854,0,0,0,.209-1.062L31.736,7.885A.85.85,0,0,0,30.709,7.5L26.547,9.173a12.3,12.3,0,0,0-2.821-1.637L23.1,3.114a.842.842,0,0,0-.836-.714H15.578a.825.825,0,0,0-.818.714l-.627,4.423a12.572,12.572,0,0,0-2.821,1.637L7.151,7.5a.831.831,0,0,0-1.027.383L2.8,13.665a.792.792,0,0,0,.209,1.062l3.535,2.751a9.687,9.687,0,0,0-.035,3.273L2.972,23.5a.854.854,0,0,0-.209,1.062l3.343,5.781a.85.85,0,0,0,1.027.383l4.161-1.672a12.3,12.3,0,0,0,2.821,1.637l.627,4.423a.856.856,0,0,0,.836.714h6.686a.812.812,0,0,0,.818-.714l.627-4.423a11.943,11.943,0,0,0,2.821-1.637l4.161,1.672a.831.831,0,0,0,1.027-.383l3.343-5.781a.806.806,0,0,0-.209-1.062ZM18.921,25.384a6.268,6.268,0,1,1,6.268-6.268A6.287,6.287,0,0,1,18.921,25.384Z" transform="translate(1.973 1.779)" fill="#5ca2b0"/>
</svg>
