<svg id="pool_black_24dp" xmlns="http://www.w3.org/2000/svg" width="51.33" height="51.33" viewBox="0 0 51.33 51.33">
  <path id="Path_71651" data-name="Path 71651" d="M0,0H51.33V51.33H0Z" fill="none"/>
  <path id="Path_71652" data-name="Path 71652" d="M44.775,41.5a8.181,8.181,0,0,1-4.662-1.369,4.015,4.015,0,0,0-2.46-.77,3.841,3.841,0,0,0-2.46.77,8.625,8.625,0,0,1-9.325,0,4.015,4.015,0,0,0-2.46-.77,3.841,3.841,0,0,0-2.46.77A8.322,8.322,0,0,1,16.265,41.5,8.181,8.181,0,0,1,11.6,40.129a3.883,3.883,0,0,0-2.46-.77,3.883,3.883,0,0,0-2.46.77A8.322,8.322,0,0,1,2,41.5V37.22a3.841,3.841,0,0,0,2.46-.77,8.322,8.322,0,0,1,4.684-1.369,8.181,8.181,0,0,1,4.662,1.369,3.841,3.841,0,0,0,2.46.77,3.841,3.841,0,0,0,2.46-.77,8.322,8.322,0,0,1,4.684-1.369,8.181,8.181,0,0,1,4.662,1.369,4.015,4.015,0,0,0,2.46.77,3.883,3.883,0,0,0,2.46-.77,8.625,8.625,0,0,1,9.325,0,3.841,3.841,0,0,0,2.46.77V41.5Zm0-9.624A8.181,8.181,0,0,1,40.112,30.5a4.015,4.015,0,0,0-2.46-.77,3.841,3.841,0,0,0-2.46.77,8.625,8.625,0,0,1-9.325,0,4.015,4.015,0,0,0-2.46-.77,3.841,3.841,0,0,0-2.46.77,8.181,8.181,0,0,1-4.662,1.369A8.181,8.181,0,0,1,11.624,30.5a4.015,4.015,0,0,0-2.46-.77,3.883,3.883,0,0,0-2.46.77A8.465,8.465,0,0,1,2,31.873V27.6a3.841,3.841,0,0,0,2.46-.77,8.181,8.181,0,0,1,4.662-1.369,8.181,8.181,0,0,1,4.662,1.369,4.015,4.015,0,0,0,2.46.77,3.841,3.841,0,0,0,2.46-.77,8.181,8.181,0,0,1,4.662-1.369,8.181,8.181,0,0,1,4.662,1.369,4.015,4.015,0,0,0,2.46.77,3.883,3.883,0,0,0,2.46-.77,8.625,8.625,0,0,1,9.325,0,4.015,4.015,0,0,0,2.46.77v4.277ZM16.265,22.249a3.841,3.841,0,0,0,2.46-.77,8.322,8.322,0,0,1,4.684-1.369,8.181,8.181,0,0,1,4.662,1.369,4.015,4.015,0,0,0,2.46.77,3.883,3.883,0,0,0,2.46-.77c.257-.15.556-.321.877-.492L20.136,7.278C16.821,3.963,13.763,2.979,8.416,3V8.347c3.892-.021,6.181.834,8.555,3.208l2.139,2.139-6.951,6.951a11.7,11.7,0,0,1,1.647.834A3.841,3.841,0,0,0,16.265,22.249Z" transform="translate(2.277 3.416)" fill="#5ca2b0"/>
  <circle id="Ellipse_171" data-name="Ellipse 171" cx="5.5" cy="5.5" r="5.5" transform="translate(30 6)" fill="#5ca2b0"/>
</svg>
