<svg xmlns="http://www.w3.org/2000/svg" width="42" height="42" viewBox="0 0 42 42">
  <g id="water_drop_black_24dp" transform="translate(0 -0.107)">
    <rect id="Rectangle_13415" data-name="Rectangle 13415" width="42" height="42" transform="translate(0 0.107)" fill="none"/>
    <path id="Path_71684" data-name="Path 71684" d="M17.989,2Q4.009,13.935,4,22.634a13.994,13.994,0,1,0,27.979,0Q31.979,13.926,17.989,2ZM10.7,22.984a1.313,1.313,0,0,1,1.294,1.084,5.924,5.924,0,0,0,6.365,5.019,1.313,1.313,0,1,1,.122,2.623,8.521,8.521,0,0,1-9.076-7.2A1.312,1.312,0,0,1,10.7,22.984Z" transform="translate(2.995 1.497)" fill="#5ca2b0"/>
  </g>
</svg>
